OpenSim_Sub01_CSBaseline_GRF.mot
version=1
nRows=28
nColumns=19
inDegrees=no
endheader
time	lFx	lFy	lFz	lCOPx	lCOPy	lCOPz	rFx	rFy	rFz	rCOPx	rCOPy	rCOPz	lMx	lMy	lMz	rMx	rMy	rMz
14.87000000	39.18571098	249.62539127	-5.48074939	0.77309271	0	-0.62309127	-59.39463529	448.23295359	-28.62732963	1.17236336	0	-0.41979236	0	-2.57468886	0	0	-1.25837324	-0.00000000
14.88000000	28.92268657	197.93566170	-7.49994273	0.78009103	0	-0.63161934	-62.29059311	480.44648048	-29.86607937	1.16859515	0	-0.41970331	0	-3.27825082	0	0	-1.34824419	0
14.89000000	17.54591015	150.14165356	-8.77384963	0.78727639	0	-0.63974792	-64.57415541	517.48557128	-30.08380653	1.16450340	0	-0.41965894	0	-4.10070587	0	0	-1.41276980	0
14.90000000	6.19463988	108.54123241	-9.27562823	0.77582746	0	-0.63296587	-65.81789937	555.38289290	-30.50123576	1.15994874	0	-0.41952107	0	-4.75701371	0	0	-1.51661289	0.00000000
14.91000000	-3.44314628	74.14718911	-9.13231709	0.71202701	0	-0.58313256	-65.94415807	589.69534300	-31.92721130	1.15516360	0	-0.41923519	0	-4.90124853	0	0	-1.67166392	0.00000000
14.92000000	-9.83942572	46.79532832	-8.89980196	0.56043661	0	-0.45878981	-65.29523026	617.10701251	-34.83462017	1.15038574	0	-0.41872889	0	-4.15487516	0	0	-1.91356036	-0.00000000
14.93000000	-12.44329810	25.97804613	-9.07817750	0.33087142	0	-0.26841555	-64.26649559	636.38847053	-39.34652616	1.14555028	0	-0.41800375	0	-2.60910556	0	0	-2.23534480	-0.00000000
14.94000000	-11.63821422	11.18561302	-9.80607843	0.12645927	0	-0.10102995	-63.18229520	648.46566973	-45.16126144	1.14069440	0	-0.41708847	0	-1.09416663	0	0	-2.55945180	-0.00000000
14.95000000	-9.24550332	2.33142218	-10.70051023	0.01479667	0	-0.01074331	-62.19810692	655.22986397	-51.19611183	1.13591014	0	-0.41600616	0	-0.19509073	0	0	-2.83703699	-0.00000000
14.96000000	-7.50253228	-1.21166252	-11.07334601	-0.02141372	0	0.01797726	-61.24045244	658.16396005	-56.19991164	1.13126423	0	-0.41481977	0	0.13117786	0	0	-3.06560841	0
14.97000000	-6.82729832	-1.68877771	-11.12144169	-0.02117638	0	0.01733527	-60.18008487	657.72580004	-59.49024514	1.12675423	0	-0.41367535	0	0.15726912	0	0	-3.21969774	0.00000000
14.98000000	-6.81834317	-1.09189541	-11.10398060	-0.01143546	0	0.00924316	-59.02268213	654.00860195	-60.81593971	1.12248650	0	-0.41266208	0	0.09227262	0	0	-3.30713248	0.00000000
14.99000000	-7.04093480	-0.42538262	-11.00993396	-0.00364018	0	0.00288466	-57.84142021	647.28882648	-60.32016568	1.11842491	0	-0.41180592	0	0.03295993	0	0	-3.39412872	0
15.00000000	-7.26720827	0.00189037	-11.00939697	0.00007929	0	-0.00011060	-56.53661159	638.03208736	-58.50012208	1.11432341	0	-0.41111619	0	0.00225411	0	0	-3.43189733	0
15.01000000	-7.41622309	0.17925585	-11.03424295	0.00102395	0	-0.00084997	-54.93394762	627.11689208	-55.80948184	1.10999971	0	-0.41054520	0	-0.00687388	0	0	-3.34868059	-0.00000000
15.02000000	-7.47248236	0.18940039	-11.08951598	0.00080510	0	-0.00065649	-52.87433317	615.80625424	-52.71321195	1.10536398	0	-0.41001619	0	-0.00613953	0	0	-3.21238627	0
15.03000000	-7.50383052	0.13262669	-11.15843462	0.00037943	0	-0.00030543	-50.36607709	605.12702325	-49.84199224	1.10030831	0	-0.40951572	0	-0.00313989	0	0	-3.06950320	0
15.04000000	-7.55395618	0.07825823	-11.21051406	0.00009376	0	-0.00007325	-47.54450373	595.54692086	-47.62148242	1.09479122	0	-0.40907064	0	-0.00091379	0	0	-2.89777737	0.00000000
15.05000000	-7.59123710	0.08127434	-11.26412416	-0.00002443	0	0.00002145	-44.75137880	587.28034157	-46.05548904	1.08896669	0	-0.40869546	0	0.00009092	0	0	-2.73457369	0.00000000
15.06000000	-7.61831226	0.09194514	-11.33963960	-0.00004443	0	0.00003663	-42.18155456	580.50470132	-45.04153005	1.08295097	0	-0.40840687	0	0.00031433	0	0	-2.59330636	-0.00000000
15.07000000	-7.68420377	0.08847951	-11.44704573	-0.00002940	0	0.00002389	-39.96818683	575.35805516	-44.51055095	1.07696852	0	-0.40819967	0	0.00022959	0	0	-2.43759504	0
15.08000000	-7.76699309	0.06578578	-11.54040261	-0.00001200	0	0.00000961	-38.13967467	571.76724071	-44.24848911	1.07114567	0	-0.40810386	0	0.00010231	0	0	-2.27371603	0.00000000
15.09000000	-7.81190224	0.02866449	-11.60542302	-0.00000193	0	0.00000145	-36.47533222	569.58302242	-44.13336302	1.06531626	0	-0.40815379	0	0.00002199	0	0	-2.09079867	0.00000000
15.10000000	-7.83144011	-0.05624129	-11.63206767	0.00000161	0	-0.00000136	-34.57464483	568.69268348	-44.18813816	1.05930478	0	-0.40838485	0	-0.00000925	0	0	-1.83629927	0
15.11000000	-7.87185281	-0.16764613	-11.63310115	0.00000181	0	-0.00000148	-32.40101419	569.08294569	-44.34708751	1.05333113	0	-0.40878586	0	-0.00001326	0	0	-1.54836867	-0.00000000
15.12000000	-7.94149120	-0.24721137	-11.65524811	0.00000104	0	-0.00000084	-30.22669082	570.63070712	-44.51507287	1.04755201	0	-0.40938782	0	-0.00000827	0	0	-1.29021893	-0.00000000
15.13000000	-7.99645914	-0.28070576	-11.64312157	0.00000036	0	-0.00000029	-28.14970699	573.27810558	-44.56563375	1.04174379	0	-0.41024410	0	-0.00000319	0	0	-1.03162577	0.00000000
15.14000000	-8.00678723	-0.19214822	-11.58180090	0.00000002	0	-0.00000001	-26.05165725	577.41372169	-44.13683581	1.03559588	0	-0.41132561	0	-0.00000041	0	0	-0.68542472	0.00000000
